<svg width="30" height="30" viewBox="0 0 30 30" fill="none" xmlns="http://www.w3.org/2000/svg">
<path d="M28.8 0H1.2C0.53625 0 0 0.53625 0 1.2V28.8C0 29.4637 0.53625 30 1.2 30H28.8C29.4637 30 30 29.4637 30 28.8V1.2C30 0.53625 29.4637 0 28.8 0ZM15.0412 15.2287L7.84125 21.2662C7.64625 21.4312 7.35 21.2925 7.35 21.0375V18.6862C7.35 18.6 7.39125 18.5138 7.45875 18.4575L11.5763 15L7.45875 11.5425C7.42428 11.5153 7.39654 11.4805 7.37768 11.4408C7.35883 11.4011 7.34935 11.3577 7.35 11.3138V8.9625C7.35 8.7075 7.64625 8.56875 7.84125 8.73375L15.0412 14.7675C15.1875 14.8875 15.1875 15.1087 15.0412 15.2287ZM22.65 21.0375C22.65 21.2025 22.5225 21.3375 22.3687 21.3375H15.4312C15.2775 21.3375 15.15 21.2025 15.15 21.0375V19.2375C15.15 19.0725 15.2775 18.9375 15.4312 18.9375H22.3687C22.5225 18.9375 22.65 19.0725 22.65 19.2375V21.0375Z" fill="#FF8340"/>
</svg>
